<?xml version="1.0" standalone="no"?>
<!DOCTYPE svg PUBLIC "-//W3C//DTD SVG 20010904//EN"
 "http://www.w3.org/TR/2001/REC-SVG-20010904/DTD/svg10.dtd">
<svg version="1.0" xmlns="http://www.w3.org/2000/svg"
 width="580.000000pt" height="580.000000pt" viewBox="0 0 580.000000 580.000000"
 preserveAspectRatio="xMidYMid meet">
<metadata>
Created by potrace 1.14, written by Peter Selinger 2001-2017
</metadata>
<g transform="translate(0.000000,580.000000) scale(0.100000,-0.100000)"
fill="#000000" stroke="none">
<path d="M2806 4042 c-4 -3 -23 -7 -87 -16 -20 -3 -48 -10 -63 -15 -14 -6 -26
-8 -26 -6 0 9 -136 -46 -200 -82 -67 -37 -210 -172 -210 -198 0 -8 -4 -15 -8
-15 -11 0 -84 -158 -98 -210 -35 -143 -34 -139 -50 -300 -9 -94 -8 -266 1
-500 17 -436 7 -725 -27 -746 -4 -3 -6 -9 -3 -14 10 -16 -44 -117 -85 -159
l-40 -41 62 5 c35 3 83 8 108 12 25 3 52 7 60 8 64 7 185 65 241 117 89 82
128 192 132 373 2 50 6 96 10 103 5 6 4 12 0 12 -5 0 -10 26 -11 58 -3 68 -10
163 -17 252 -3 36 -7 118 -9 182 -3 65 -7 122 -11 127 -3 5 -1 12 5 16 6 4 7
12 3 18 -8 13 -11 87 -3 87 3 0 5 24 5 53 0 28 3 72 8 97 4 25 9 59 11 76 2
17 8 47 14 65 6 19 14 45 16 59 6 32 39 123 47 130 3 3 11 21 19 40 8 19 28
58 46 85 17 28 33 55 35 60 9 28 178 200 238 243 l45 32 -78 -3 c-42 -1 -79
-3 -80 -5z"/>
<path d="M3230 3996 c-14 -6 -29 -14 -35 -18 -5 -5 -28 -22 -50 -38 -22 -16
-44 -33 -50 -38 -5 -4 -30 -22 -55 -39 -75 -53 -220 -213 -220 -243 0 -5 -5
-10 -11 -10 -5 0 -8 -4 -5 -9 3 -4 29 -2 58 5 61 16 154 17 218 3 25 -5 51
-10 58 -11 6 -1 12 -4 12 -8 0 -4 6 -7 13 -7 23 0 106 -54 157 -102 59 -56
114 -145 136 -220 19 -65 24 -175 12 -244 -8 -44 -52 -148 -80 -191 -40 -61
-154 -154 -208 -171 -14 -4 -29 -11 -35 -15 -16 -13 -73 -22 -161 -26 -90 -4
-168 13 -239 51 -39 20 -65 19 -52 -3 15 -22 26 -477 13 -520 -3 -9 -8 -37
-11 -61 -4 -23 -10 -53 -15 -66 -5 -13 -6 -26 -3 -29 4 -3 1 -6 -5 -6 -7 0
-12 -8 -12 -17 0 -22 -55 -118 -98 -172 l-35 -43 29 15 c16 8 39 25 51 36 12
12 24 21 27 21 20 0 129 137 152 190 3 8 10 24 14 35 8 18 38 118 40 130 0 3
0 10 0 16 0 5 4 7 10 4 12 -8 205 -8 240 0 14 2 52 10 85 16 33 6 64 14 70 17
5 4 12 7 15 8 121 23 321 160 443 304 39 45 112 170 100 170 -4 0 -2 4 5 9 7
4 15 14 16 22 2 8 8 28 15 44 7 17 22 66 33 110 31 120 30 386 -3 446 -5 10
-7 19 -4 19 6 0 -37 114 -67 177 -72 150 -201 288 -353 380 -37 22 -115 63
-122 64 -15 3 -38 11 -53 18 -8 5 -26 3 -40 -3z"/>
</g>
</svg>
